<?xml version="1.0" encoding="utf-8"?>
<!-- Generator: Adobe Illustrator 23.0.0, SVG Export Plug-In . SVG Version: 6.00 Build 0)  -->
<svg version="1.1" id="Layer_1" xmlns="http://www.w3.org/2000/svg" xmlns:xlink="http://www.w3.org/1999/xlink" x="0px" y="0px"
	 viewBox="0 0 428 123" style="enable-background:new 0 0 428 123;" xml:space="preserve">
<style type="text/css">
	.st0{fill:url(#Bg_1_);}
	.st1{fill:url(#White_1_);stroke:#F7F7F7;stroke-width:3;stroke-miterlimit:10;}
	.st2{fill:url(#SVGID_1_);}
	.st3{fill:url(#SVGID_2_);}
	.st4{fill:url(#SVGID_3_);}
	.st5{fill:url(#SVGID_4_);}
	.st6{fill:url(#SVGID_5_);}
	.st7{fill:url(#SVGID_6_);}
	.st8{fill:url(#SVGID_7_);}
	.st9{fill:url(#SVGID_8_);}
	.st10{fill:url(#SVGID_9_);}
	.st11{fill:url(#SVGID_10_);}
	.st12{fill:url(#SVGID_11_);}
	.st13{fill:url(#SVGID_12_);}
	.st14{opacity:0.2;fill:none;stroke:#FFFFFF;stroke-miterlimit:10;enable-background:new    ;}
	.st15{fill:#FEFFFF;}
	.st16{opacity:0.1;}
	.st17{fill:url(#SVGID_13_);}
	.st18{fill:url(#SVGID_14_);}
	.st19{fill:url(#SVGID_15_);}
	.st20{fill:url(#SVGID_16_);}
	.st21{fill:url(#SVGID_17_);}
</style>
<linearGradient id="Bg_1_" gradientUnits="userSpaceOnUse" x1="86.9518" y1="242.2024" x2="341.9222" y2="-21.8271" gradientTransform="matrix(1 0 0 -1 0 172)">
	<stop  offset="0" style="stop-color:#B374DF"/>
	<stop  offset="1" style="stop-color:#EA88DE"/>
</linearGradient>
<path id="Bg" class="st0" d="M20.7,122.3h387.5c10.6,0,19.3-8.6,19.3-19.3V20.6c0-10.6-8.6-19.3-19.3-19.3H20.7
	C10,1.3,1.4,10,1.4,20.6v82.5C1.4,113.7,10,122.3,20.7,122.3z"/>
<linearGradient id="White_1_" gradientUnits="userSpaceOnUse" x1="79.525" y1="122.975" x2="20.2187" y2="182.2813" gradientTransform="matrix(1 0 0 -1 0 172)">
	<stop  offset="0" style="stop-color:#F7F7F7"/>
	<stop  offset="1" style="stop-color:#EDEAEA"/>
</linearGradient>
<path id="White" class="st1" d="M82.6,38.8H17.2C7.6,38.8-0.1,31-0.1,21.5v-4.3c0-9.6,7.8-17.3,17.3-17.3h65.3
	c9.6,0,17.3,7.8,17.3,17.3v4.3C99.9,31.1,92.1,38.8,82.6,38.8z"/>
<image style="overflow:visible;enable-background:new    ;" width="232" height="80" id="AG_gaming_logo" xlink:href="_logos/ag-black.png"  transform="matrix(0.2278 0 0 0.2278 23.4684 10.2171)">
</image>
<g>
	
		<linearGradient id="SVGID_1_" gradientUnits="userSpaceOnUse" x1="350.5244" y1="136.1023" x2="368.3586" y2="117.6344" gradientTransform="matrix(1 0 0 -1 0 172)">
		<stop  offset="0" style="stop-color:#B374DF"/>
		<stop  offset="1" style="stop-color:#EA88DE"/>
	</linearGradient>
	<path class="st2" d="M367.5,38.8c0-0.1,0-0.3,0-0.4c0-4.4-3.6-8-8-8s-8,3.6-8,8c0,0.1,0,0.3,0,0.4c-0.3,0.1-0.6,0.2-0.9,0.4
		c-4,2-5.6,6.8-3.6,10.8s6.8,5.6,10.8,3.6l-2.5,4.6c-0.1,0.2-0.1,0.5,0,0.7c0.2,0.4,0.6,0.6,1,0.4c2-0.8,4.3-0.8,6.4,0
		c0.2,0.1,0.5,0.1,0.7,0c0.4-0.2,0.5-0.7,0.3-1.1l-2.5-4.6c1.1,0.6,2.4,0.9,3.6,0.9l0,0c3.4,0,6.4-2.1,7.6-5.3
		C373.9,44.8,371.7,40.2,367.5,38.8z M361.4,57.1c-1.2-0.2-2.5-0.2-3.8,0l1.9-3.5L361.4,57.1z M369.2,51.1c-2.6,2.4-6.7,2.2-9.1-0.4
		l0,0c-0.3-0.3-0.8-0.3-1.1,0c-0.8,0.9-1.9,1.5-3.1,1.9c-3.4,0.9-7-1.1-7.9-4.6c-0.9-3.4,1.1-7,4.6-7.9c0.4-0.1,0.6-0.5,0.6-0.9
		c-0.1-0.6-0.1-1.2,0-1.7c0.5-3.5,3.7-6,7.2-5.5s6,3.7,5.5,7.2c-0.1,0.4,0.2,0.8,0.6,0.9l0,0c1.2,0.3,2.3,1,3.1,1.9
		C372,44.6,371.8,48.6,369.2,51.1z"/>
	
		<linearGradient id="SVGID_2_" gradientUnits="userSpaceOnUse" x1="327.3504" y1="125.8407" x2="342.0178" y2="110.6522" gradientTransform="matrix(1 0 0 -1 0 172)">
		<stop  offset="0" style="stop-color:#B374DF"/>
		<stop  offset="1" style="stop-color:#EA88DE"/>
	</linearGradient>
	<path class="st3" d="M337.2,45.6H328c0.2,7.8,3.3,15.3,8.7,21l6.5-6.5C339.5,56.1,337.4,50.9,337.2,45.6z"/>
	
		<linearGradient id="SVGID_3_" gradientUnits="userSpaceOnUse" x1="345.3378" y1="157.4139" x2="355.7213" y2="146.6616" gradientTransform="matrix(1 0 0 -1 0 172)">
		<stop  offset="0" style="stop-color:#B374DF"/>
		<stop  offset="1" style="stop-color:#EA88DE"/>
	</linearGradient>
	<path class="st4" d="M358.7,22.4v-9.2c-7.8,0.2-15.3,3.3-21,8.7l6.5,6.5C348.2,24.7,353.4,22.6,358.7,22.4z"/>
	
		<linearGradient id="SVGID_4_" gradientUnits="userSpaceOnUse" x1="361.276" y1="159.7124" x2="375.8448" y2="144.6259" gradientTransform="matrix(1 0 0 -1 0 172)">
		<stop  offset="0" style="stop-color:#B374DF"/>
		<stop  offset="1" style="stop-color:#EA88DE"/>
	</linearGradient>
	<path class="st5" d="M381.3,21.9c-5.7-5.4-13.1-8.5-21-8.7v9.2c5.4,0.2,10.5,2.3,14.4,6L381.3,21.9z"/>
	
		<linearGradient id="SVGID_5_" gradientUnits="userSpaceOnUse" x1="343.2586" y1="109.8705" x2="357.8274" y2="94.7841" gradientTransform="matrix(1 0 0 -1 0 172)">
		<stop  offset="0" style="stop-color:#B374DF"/>
		<stop  offset="1" style="stop-color:#EA88DE"/>
	</linearGradient>
	<path class="st6" d="M337.8,67.6c5.7,5.4,13.1,8.5,21,8.7v-9.2c-5.4-0.2-10.5-2.3-14.4-6L337.8,67.6z"/>
	
		<linearGradient id="SVGID_6_" gradientUnits="userSpaceOnUse" x1="377.0238" y1="143.8082" x2="391.6913" y2="128.6198" gradientTransform="matrix(1 0 0 -1 0 172)">
		<stop  offset="0" style="stop-color:#B374DF"/>
		<stop  offset="1" style="stop-color:#EA88DE"/>
	</linearGradient>
	<path class="st7" d="M381.9,44h9.2c-0.2-7.8-3.3-15.3-8.7-21l-6.5,6.5C379.6,33.5,381.7,38.6,381.9,44z"/>
	
		<linearGradient id="SVGID_7_" gradientUnits="userSpaceOnUse" x1="329.243" y1="141.8328" x2="339.9779" y2="130.7165" gradientTransform="matrix(1 0 0 -1 0 172)">
		<stop  offset="0" style="stop-color:#B374DF"/>
		<stop  offset="1" style="stop-color:#EA88DE"/>
	</linearGradient>
	<path class="st8" d="M343.2,29.5l-6.5-6.5c-5.4,5.7-8.5,13.1-8.7,21h9.2C337.4,38.6,339.5,33.5,343.2,29.5z"/>
	
		<linearGradient id="SVGID_8_" gradientUnits="userSpaceOnUse" x1="345.0465" y1="142.167" x2="373.9352" y2="112.2519" gradientTransform="matrix(1 0 0 -1 0 172)">
		<stop  offset="0" style="stop-color:#B374DF"/>
		<stop  offset="1" style="stop-color:#EA88DE"/>
	</linearGradient>
	<path class="st9" d="M380.3,44.8c0-11.5-9.3-20.8-20.8-20.8s-20.8,9.3-20.8,20.8s9.3,20.8,20.8,20.8S380.3,56.2,380.3,44.8z
		 M372.4,49c-1.1,3.2-4.2,5.3-7.6,5.3l0,0c-1.3,0-2.5-0.3-3.6-0.9l2.5,4.6c0.2,0.4,0.1,0.9-0.3,1.1c-0.2,0.1-0.5,0.1-0.7,0
		c-2-0.8-4.3-0.8-6.4,0c-0.4,0.2-0.9,0-1-0.4c-0.1-0.2-0.1-0.5,0-0.7l2.5-4.6c-4,2-8.8,0.4-10.8-3.6s-0.4-8.8,3.6-10.8
		c0.3-0.1,0.6-0.3,0.9-0.4c0-0.1,0-0.3,0-0.4c0-4.4,3.6-8,8-8s8,3.6,8,8c0,0.1,0,0.3,0,0.4C371.7,40.2,373.9,44.8,372.4,49z"/>
	
		<linearGradient id="SVGID_9_" gradientUnits="userSpaceOnUse" x1="363.3345" y1="107.7808" x2="373.7178" y2="97.0285" gradientTransform="matrix(1 0 0 -1 0 172)">
		<stop  offset="0" style="stop-color:#B374DF"/>
		<stop  offset="1" style="stop-color:#EA88DE"/>
	</linearGradient>
	<path class="st10" d="M360.3,67.1v9.2c7.8-0.2,15.3-3.3,21-8.7l-6.5-6.5C370.8,64.8,365.7,66.9,360.3,67.1z"/>
	
		<linearGradient id="SVGID_10_" gradientUnits="userSpaceOnUse" x1="379.1306" y1="123.7747" x2="389.8655" y2="112.6583" gradientTransform="matrix(1 0 0 -1 0 172)">
		<stop  offset="0" style="stop-color:#B374DF"/>
		<stop  offset="1" style="stop-color:#EA88DE"/>
	</linearGradient>
	<path class="st11" d="M375.9,60l6.5,6.5c5.4-5.7,8.5-13.1,8.7-21h-9.2C381.7,50.9,379.6,56.1,375.9,60z"/>
	
		<linearGradient id="SVGID_11_" gradientUnits="userSpaceOnUse" x1="358.1765" y1="117.0367" x2="360.8233" y2="114.2958" gradientTransform="matrix(1 0 0 -1 0 172)">
		<stop  offset="0" style="stop-color:#B374DF"/>
		<stop  offset="1" style="stop-color:#EA88DE"/>
	</linearGradient>
	<path class="st12" d="M357.6,57.1c1.2-0.2,2.5-0.2,3.8,0l-1.9-3.5L357.6,57.1z"/>
	
		<linearGradient id="SVGID_12_" gradientUnits="userSpaceOnUse" x1="351.7029" y1="135.0115" x2="367.1987" y2="118.9651" gradientTransform="matrix(1 0 0 -1 0 172)">
		<stop  offset="0" style="stop-color:#B374DF"/>
		<stop  offset="1" style="stop-color:#EA88DE"/>
	</linearGradient>
	<path class="st13" d="M366.5,40.1L366.5,40.1c-0.4-0.1-0.6-0.5-0.6-0.9c0.5-3.5-2-6.8-5.5-7.2c-3.5-0.5-6.8,2-7.2,5.5
		c-0.1,0.6-0.1,1.2,0,1.7c0.1,0.4-0.2,0.8-0.6,0.9c-3.4,0.9-5.5,4.4-4.6,7.9c0.9,3.4,4.4,5.5,7.9,4.6c1.2-0.3,2.3-1,3.1-1.9
		c0.3-0.3,0.8-0.3,1.1,0l0,0c2.4,2.6,6.5,2.8,9.1,0.4c2.6-2.4,2.8-6.5,0.4-9.1C368.8,41.1,367.7,40.4,366.5,40.1z"/>
</g>
<path id="Line" class="st14" d="M114.8,82.7h274.4c0,0,19.4-0.4,19.4-22.5s0-59.1,0-59.1"/>
<g id="Txt">
	<g>
		<path class="st15" d="M25.9,76.9h4.5l7.2,16.9h-5l-1.2-3h-6.5l-1.2,3h-4.9L25.9,76.9z M30,87.2l-1.9-4.8l-1.9,4.8H30z"/>
		<path class="st15" d="M37.5,85.5L37.5,85.5c0-4.9,3.8-8.8,9-8.8c3,0,5,0.9,6.8,2.4l-2.7,3.3c-1.2-1-2.4-1.6-4.1-1.6
			c-2.4,0-4.3,2-4.3,4.6l0,0c0,2.7,1.9,4.7,4.6,4.7c1.1,0,2-0.2,2.7-0.7v-2h-3.3V84h7.7v7.6c-1.8,1.5-4.2,2.6-7.3,2.6
			C41.4,94.2,37.5,90.6,37.5,85.5z"/>
	</g>
	<g>
		<path class="st15" d="M74,88.8h1.2v2H56.3v-2h1.3v-7.5c0-1.7,0.9-2.4,2.7-2.3H63l0.3-0.7h-6.9V76H64l0.2-0.7h3.5L67.5,76h7.7v2.3
			h-8.3L66.7,79h4.6c1.8-0.1,2.7,0.7,2.7,2.3C74,81.3,74,88.8,74,88.8z M58.1,91.1h3.7l-0.5,1.2l6.4-1.1c0.3-0.1,0.7-0.1,1.3-0.2
			c0.3-0.1,0.5-0.1,0.6-0.1h1.8c0.7,0.1,1.2,0.2,1.4,0.4l2.4,2.5h-4.5l-1.4-1.4c-0.2-0.2-0.5-0.3-1-0.3l-6.4,1.5
			c-0.5,0.2-1.1,0.3-1.6,0.3h-1.4c-0.9,0-1.4-0.4-1.4-1.3L58.1,91.1z M69.3,81.1h-8.2v0.7h9.4v-0.2C70.5,81.3,70.1,81.1,69.3,81.1z
			 M61.1,84.1h9.4v-0.2c0-0.3-0.4-0.5-1.2-0.5h-8.2C61.1,83.4,61.1,84.1,61.1,84.1z M69.3,85.7h-8.2v0.7h9.4v-0.2
			C70.5,85.9,70.1,85.7,69.3,85.7z M69.3,88.1h-8.2v0.7h9.4v-0.2C70.5,88.2,70.1,88.1,69.3,88.1z"/>
		<path class="st15" d="M83.5,75.2h3.7l-1.1,4.7h2l7.1,14h-3.8l-6.1-12c-2.1,5.5-5.1,9.5-9,12.1v-4.1C80.2,85.9,82.6,81,83.5,75.2z"
			/>
	</g>
	<g>
		<path class="st15" d="M24.9,109.3v1.1h-5.3v-9.3h1.3v8.3L24.9,109.3L24.9,109.3z"/>
		<path class="st15" d="M28.6,110.4h-1.3v-9.3h1.3V110.4z"/>
		<path class="st15" d="M39.5,101.1l-3.8,9.3h-1.1l-3.8-9.3h1c0.1,0,0.2,0,0.3,0.1s0.1,0.1,0.2,0.2l2.6,6.6c0.1,0.1,0.1,0.3,0.2,0.5
			s0.1,0.4,0.1,0.5c0-0.2,0.1-0.4,0.1-0.5c0-0.2,0.1-0.3,0.2-0.5l2.6-6.6c0-0.1,0.1-0.1,0.2-0.2c0.1-0.1,0.2-0.1,0.3-0.1H39.5z"/>
		<path class="st15" d="M47.6,109.4v1h-5.7v-9.3h5.7v1h-4.5v3.1h3.6v1h-3.6v3.2C43.1,109.4,47.6,109.4,47.6,109.4z"/>
		<path class="st15" d="M61.3,108.5c0.1,0,0.1,0,0.2,0.1l0.5,0.5c-0.4,0.4-0.8,0.8-1.4,1c-0.5,0.2-1.2,0.4-2,0.4
			c-0.7,0-1.3-0.1-1.8-0.3s-1-0.6-1.4-1s-0.7-0.9-0.9-1.5s-0.3-1.2-0.3-1.9c0-0.7,0.1-1.3,0.3-1.9s0.5-1.1,0.9-1.5s0.9-0.7,1.4-1
			c0.6-0.2,1.2-0.3,1.9-0.3s1.2,0.1,1.8,0.3c0.5,0.2,1,0.5,1.3,0.9l-0.4,0.6l-0.1,0.1c0,0-0.1,0-0.2,0c-0.1,0-0.2,0-0.3-0.1
			s-0.3-0.2-0.4-0.3s-0.4-0.2-0.7-0.3c-0.3-0.1-0.6-0.1-1-0.1c-0.5,0-0.9,0.1-1.3,0.3c-0.4,0.2-0.7,0.4-1,0.7
			c-0.3,0.3-0.5,0.7-0.7,1.2s-0.2,1-0.2,1.5c0,0.6,0.1,1.1,0.3,1.6s0.4,0.8,0.7,1.2c0.3,0.3,0.6,0.6,1,0.7c0.4,0.2,0.8,0.2,1.3,0.2
			c0.3,0,0.5,0,0.8,0s0.4-0.1,0.6-0.2s0.4-0.2,0.5-0.3c0.2-0.1,0.3-0.2,0.5-0.4C61.1,108.5,61.2,108.5,61.3,108.5z"/>
		<path class="st15" d="M72,110.4h-1c-0.1,0-0.2,0-0.3-0.1s-0.1-0.1-0.2-0.2l-0.9-2.2h-4.2l-0.9,2.2c0,0.1-0.1,0.1-0.1,0.2
			c-0.1,0.1-0.2,0.1-0.3,0.1h-1l3.7-9.3h1.3L72,110.4z M69.4,106.9l-1.5-3.8c0-0.1-0.1-0.2-0.1-0.4c0-0.1-0.1-0.3-0.1-0.5
			c-0.1,0.4-0.2,0.6-0.3,0.9l-1.5,3.8H69.4z"/>
		<path class="st15" d="M79.1,102.5C79.1,102.6,79,102.6,79.1,102.5c-0.1,0.1-0.2,0.1-0.3,0.1s-0.2,0-0.3-0.1s-0.2-0.2-0.4-0.2
			s-0.3-0.2-0.5-0.2c-0.2-0.1-0.5-0.1-0.8-0.1s-0.5,0-0.7,0.1s-0.4,0.2-0.5,0.3c-0.1,0.1-0.3,0.3-0.3,0.5c-0.1,0.2-0.1,0.4-0.1,0.6
			c0,0.3,0.1,0.5,0.2,0.6c0.1,0.2,0.3,0.3,0.5,0.4s0.4,0.2,0.7,0.3c0.3,0.1,0.5,0.2,0.8,0.3c0.3,0.1,0.6,0.2,0.8,0.3
			s0.5,0.3,0.7,0.5s0.4,0.4,0.5,0.7c0.1,0.3,0.2,0.6,0.2,1s-0.1,0.8-0.2,1.1s-0.3,0.7-0.6,0.9c-0.3,0.3-0.6,0.5-1,0.6
			c-0.4,0.2-0.8,0.2-1.3,0.2c-0.6,0-1.2-0.1-1.7-0.3c-0.5-0.2-0.9-0.5-1.3-0.9l0.4-0.6l0.1-0.1c0,0,0.1,0,0.2,0s0.1,0,0.2,0.1
			c0.1,0,0.2,0.1,0.2,0.2c0.1,0.1,0.2,0.1,0.3,0.2c0.1,0.1,0.3,0.2,0.4,0.2c0.1,0.1,0.3,0.1,0.5,0.2c0.2,0,0.4,0.1,0.6,0.1
			c0.3,0,0.6,0,0.8-0.1s0.4-0.2,0.6-0.3c0.2-0.1,0.3-0.3,0.4-0.5s0.1-0.4,0.1-0.7c0-0.3-0.1-0.5-0.2-0.7s-0.3-0.3-0.5-0.5
			c-0.2-0.1-0.4-0.2-0.7-0.3s-0.5-0.2-0.8-0.3c-0.3-0.1-0.6-0.2-0.8-0.3s-0.5-0.3-0.7-0.5s-0.4-0.4-0.5-0.7c-0.1-0.3-0.2-0.6-0.2-1
			c0-0.3,0.1-0.6,0.2-1s0.3-0.6,0.6-0.8s0.5-0.4,0.9-0.6c0.4-0.1,0.8-0.2,1.2-0.2c0.5,0,1,0.1,1.4,0.2s0.8,0.4,1.1,0.7L79.1,102.5z"
			/>
		<path class="st15" d="M83.7,110.4h-1.3v-9.3h1.3V110.4z"/>
		<path class="st15" d="M94.6,101.1v9.3H94c-0.1,0-0.2,0-0.3-0.1c-0.1,0-0.1-0.1-0.2-0.2l-5.4-7c0,0.1,0,0.2,0,0.3s0,0.2,0,0.3v6.6
			H87V101h0.6c0.1,0,0.1,0,0.1,0h0.1c0,0,0.1,0,0.1,0.1l0.1,0.1l5.4,7c0-0.1,0-0.2,0-0.3c0-0.1,0-0.2,0-0.3V101L94.6,101.1
			L94.6,101.1z"/>
		<path class="st15" d="M106.6,105.7c0,0.7-0.1,1.3-0.3,1.9c-0.2,0.6-0.5,1.1-0.9,1.5s-0.9,0.7-1.5,1c-0.6,0.2-1.2,0.3-1.9,0.3
			c-0.7,0-1.3-0.1-1.9-0.3c-0.6-0.2-1-0.6-1.4-1s-0.7-0.9-0.9-1.5c-0.2-0.6-0.3-1.2-0.3-1.9s0.1-1.3,0.3-1.9
			c0.2-0.6,0.5-1.1,0.9-1.5s0.9-0.8,1.4-1c0.6-0.2,1.2-0.4,1.9-0.4c0.7,0,1.3,0.1,1.9,0.4s1,0.6,1.5,1c0.4,0.4,0.7,0.9,0.9,1.5
			C106.5,104.4,106.6,105,106.6,105.7z M105.3,105.7c0-0.6-0.1-1.1-0.2-1.5c-0.2-0.5-0.4-0.8-0.7-1.2c-0.3-0.3-0.6-0.6-1-0.7
			c-0.4-0.2-0.9-0.3-1.4-0.3s-1,0.1-1.4,0.3c-0.4,0.2-0.8,0.4-1,0.7c-0.3,0.3-0.5,0.7-0.7,1.2s-0.2,1-0.2,1.5c0,0.6,0.1,1.1,0.2,1.5
			c0.2,0.5,0.4,0.8,0.7,1.2c0.3,0.3,0.6,0.6,1,0.7c0.4,0.2,0.9,0.3,1.4,0.3s1-0.1,1.4-0.3c0.4-0.2,0.8-0.4,1-0.7
			c0.3-0.3,0.5-0.7,0.7-1.2C105.3,106.8,105.3,106.3,105.3,105.7z"/>
	</g>
</g>
<g class="st16">
	<path class="st15" d="M267,82.1h9.6l15.3,36.2h-10.7l-2.6-6.4h-13.9l-2.6,6.4h-10.5L267,82.1z M275.7,104.1l-4-10.2l-4.1,10.2
		H275.7z"/>
	<path class="st15" d="M291.9,100.4L291.9,100.4c0-10.6,8.2-18.8,19.4-18.8c6.3,0,10.8,2,14.6,5.2l-5.9,7c-2.6-2.2-5.1-3.4-8.7-3.4
		c-5.2,0-9.2,4.4-9.2,9.9v0.1c0,5.8,4.1,10,9.8,10c2.4,0,4.3-0.5,5.8-1.5v-4.4h-7.1v-7.3h16.5v16.2c-3.8,3.1-9.1,5.6-15.6,5.6
		C300.2,119,291.9,111.3,291.9,100.4z"/>
</g>
<g class="st16">
	<path class="st15" d="M372.1,107.4h2.5v4.2h-40.5v-4.2h2.7V91.3c0-3.6,2-5.2,5.9-5h5.9l0.7-1.5h-14.7v-5h16.1l0.5-1.5h7.5l-0.5,1.5
		h16.4v5h-17.7l-0.3,1.5h9.9c3.9-0.1,5.9,1.5,5.9,4.9v16.2C372.4,107.4,372.1,107.4,372.1,107.4z M338,112.4h7.9l-1.2,2.5l13.7-2.3
		c0.7-0.1,1.6-0.2,2.7-0.3c0.6-0.1,1-0.2,1.3-0.2h3.8c1.6,0.1,2.6,0.4,3,0.8l5.2,5.4h-9.7l-3-3c-0.3-0.4-1.1-0.7-2.2-0.7l-13.7,3.2
		c-1.1,0.4-2.3,0.7-3.5,0.7h-3c-2,0-3-0.9-3-2.7L338,112.4z M361.9,91h-17.6v1.5h20.1v-0.3C364.5,91.4,363.6,91,361.9,91z
		 M344.4,97.3h20.1V97c0-0.7-0.8-1-2.5-1h-17.6V97.3z M361.9,100.9h-17.6v1.5h20.1V102C364.5,101.2,363.6,100.9,361.9,100.9z
		 M361.9,105.9h-17.6v1.5h20.1V107C364.5,106.3,363.6,105.9,361.9,105.9z"/>
	<path class="st15" d="M392.4,78.3h7.9l-2.3,10h4.4l15.2,29.9h-8.2l-13.1-25.8c-4.5,11.7-10.9,20.4-19.2,25.9v-8.7
		C385.4,101.2,390.5,90.8,392.4,78.3z"/>
</g>
<g>
	
		<linearGradient id="SVGID_13_" gradientUnits="userSpaceOnUse" x1="115.4904" y1="158.4702" x2="128.0828" y2="145.4305" gradientTransform="matrix(1 0 0 -1 0 172)">
		<stop  offset="0" style="stop-color:#EC8EE0"/>
		<stop  offset="1" style="stop-color:#DA83DE"/>
	</linearGradient>
	<path class="st17" d="M127.2,23.1h0.8v1.4h-13.2v-1.4h0.9v-5.3c0-1.2,0.6-1.7,1.9-1.6h1.9l0.2-0.5h-4.8v-1.6h5.3l0.2-0.5h2.5
		l-0.2,0.5h5.4v1.6h-5.8l-0.1,0.5h3.2c1.3,0,1.9,0.5,1.9,1.6v5.3C127.3,23.1,127.2,23.1,127.2,23.1z M116.1,24.7h2.6l-0.4,0.8
		l4.5-0.8c0.2,0,0.5-0.1,0.9-0.1c0.2,0,0.3-0.1,0.4-0.1h1.3c0.5,0,0.8,0.1,1,0.3l1.7,1.8h-3.2l-1-1c-0.1-0.1-0.3-0.2-0.7-0.2l-4.5,1
		c-0.4,0.1-0.7,0.2-1.1,0.2h-1c-0.7,0-1-0.3-1-0.9L116.1,24.7z M123.9,17.7h-5.7v0.5h6.6v-0.1C124.7,17.8,124.4,17.7,123.9,17.7z
		 M118.1,19.8h6.6v-0.1c0-0.2-0.3-0.3-0.8-0.3h-5.7L118.1,19.8L118.1,19.8z M123.9,20.9h-5.7v0.5h6.6v-0.1
		C124.7,21.1,124.4,20.9,123.9,20.9z M123.9,22.6h-5.7v0.5h6.6V23C124.7,22.7,124.4,22.6,123.9,22.6z"/>
	
		<linearGradient id="SVGID_14_" gradientUnits="userSpaceOnUse" x1="131.0193" y1="154.6277" x2="141.5087" y2="143.7657" gradientTransform="matrix(1 0 0 -1 0 172)">
		<stop  offset="0" style="stop-color:#EC8EE0"/>
		<stop  offset="1" style="stop-color:#DA83DE"/>
	</linearGradient>
	<path class="st18" d="M135,13.6h2.6l-0.8,3.3h1.4l5,9.8h-2.7l-4.3-8.4c-1.5,3.8-3.6,6.7-6.3,8.5V24C132.7,21.1,134.3,17.6,135,13.6
		z"/>
	
		<linearGradient id="SVGID_15_" gradientUnits="userSpaceOnUse" x1="145.2455" y1="157.9277" x2="157.7878" y2="144.9397" gradientTransform="matrix(1 0 0 -1 0 172)">
		<stop  offset="0" style="stop-color:#EC8EE0"/>
		<stop  offset="1" style="stop-color:#DA83DE"/>
	</linearGradient>
	<path class="st19" d="M149,23.8l1.9,2.8h-2.3l-1-1.5c-0.8,0.7-1.6,1.2-2.5,1.6v-2.1c0.4-0.3,0.9-0.7,1.4-1.2l-1.1-1.7v-4.3H145
		v-1.8h0.4v-1.8h2v1.8h0.8v-1.8h2v1.8h0.4v1.8h-0.4v4.3L149,23.8z M148.3,20.8v-3.4h-0.8v3.4l0.4,0.9L148.3,20.8z M158.1,18.3V20
		h-2.6v1h2.8v1.9h-3.1l-0.3,0.7h1.9l1.5,3H156l-1.2-2.6l-1.3,2.7H151l1.7-3.8h-2.2V21h2.6v-0.4c0-0.4-0.3-0.7-0.9-0.7h-1.5v-1.8h7.4
		V18.3z M158,15.3v2.5h-6.9v-2.5c0-1.1,0.6-1.6,1.9-1.6h3.3C157.4,13.6,158,14.2,158,15.3z M155.1,15.3h-1.8v0.9h2.5v-0.4
		C155.8,15.4,155.5,15.3,155.1,15.3z"/>
	
		<linearGradient id="SVGID_16_" gradientUnits="userSpaceOnUse" x1="160.7663" y1="157.8321" x2="172.9083" y2="145.2587" gradientTransform="matrix(1 0 0 -1 0 172)">
		<stop  offset="0" style="stop-color:#EC8EE0"/>
		<stop  offset="1" style="stop-color:#DA83DE"/>
	</linearGradient>
	<path class="st20" d="M163.2,21.8l-0.5,4.6h-2.4l0.5-4.6H163.2z M170.9,15.6h-8.2v2.9c0,0.2,0.1,0.3,0.3,0.3h2.5v-2h2.5v2h5.1V21
		H168v5.7h-2.5v-4.4c0-0.9-0.4-1.3-1.2-1.3h-2c-1.2-0.1-1.9-0.7-1.9-1.8v-3.9c0-1.1,0.6-1.7,1.8-1.8h10.2v0.8
		C172.4,15.2,171.9,15.6,170.9,15.6z M169.7,21.8h1.6c0.6,0,0.9,0.3,1,0.8l0.8,4h-2.4L169.7,21.8z"/>
	
		<linearGradient id="SVGID_17_" gradientUnits="userSpaceOnUse" x1="175.6772" y1="157.5939" x2="187.6298" y2="145.2166" gradientTransform="matrix(1 0 0 -1 0 172)">
		<stop  offset="0" style="stop-color:#EC8EE0"/>
		<stop  offset="1" style="stop-color:#DA83DE"/>
	</linearGradient>
	<path class="st21" d="M178.8,24.9h1v0.8c0,0.6-0.3,0.9-1,1h-3.5v-1.8h1.3v-5.7c0-0.7-0.3-1.1-0.8-1.1l-0.4-0.1v-1.8h1.2v-2.6h2.3
		v2.6h1V18h-1v6.9H178.8z M186.2,24.4v-1c-0.8,0.5-2.7,1.5-5.8,2.9v-2.1c2.2-1,4.2-2.1,5.8-3.3V20c-1.6,1.2-3.5,2.3-5.9,3.2v-2.1
		c1.2-0.6,2.2-1.2,3.1-1.6h-2.3c-1.1-0.3-1.2-1.1-0.3-2.3l3.2-1.5h-3.6v-1.9h6.7c1.1,0.5,1.2,1.2,0.4,2.1l-3.4,1.8h2.5
		c1.2,0,1.9,0.5,1.9,1.8v5.9c0,0.9-0.5,1.3-1.5,1.3h-2.4V25h0.8C185.9,24.9,186.2,24.8,186.2,24.4z"/>
</g>
<image style="overflow:visible;enable-background:new    ;" width="408" height="291" id="img-AG" xlink:href="_top-bg/AG_bg.png"  transform="matrix(0.3823 0 0 0.3823 230.3396 11.8609)">
</image>
</svg>
